# xmcd CD database file
#
# Track frame offsets:
#	150
#	16772
#	28309
#	47443
#	62824
#	83938
#	98507
#	113510
#	128058
#	146227
#	164294
#
# Disc length: 2509 seconds
#
# Revision: 2
# Processed by: cddbd v1.5.2PL0 Copyright (c) Steve Scherf et al.
# Submitted via: CDex 1.51
#
DISCID=8709cb0b
DTITLE=Bucksworth - Things Found Walkin With Your Head Down
DYEAR=2006
DGENRE=Blues
TTITLE0=Like Wez Told
TTITLE1=Waitin for the truth
TTITLE2=Last Jalopy
TTITLE3=Get Poor Slow
TTITLE4=Lil Girl (is mean)
TTITLE5=From Where We're From
TTITLE6=Too Many Smokes
TTITLE7=Tex Message
TTITLE8=We Try - She Try
TTITLE9=Things Found Walkin With Your Head Down
TTITLE10=Wish Me On You
EXTD=YEAR: 2006
EXTT0=
EXTT1=
EXTT2=
EXTT3=
EXTT4=
EXTT5=
EXTT6=
EXTT7=
EXTT8=
EXTT9=
EXTT10=
PLAYORDER=
